<svg xmlns="http://www.w3.org/2000/svg" width="1800" height="406" viewBox="0 0 1800 406" font-family="Helvetica,Arial,sans-serif">
  <defs>
    <marker id="arrow" viewBox="0 0 10 10" refX="9" refY="5" markerWidth="7" markerHeight="7" orient="auto-start-reverse">
      <path d="M 0 0 L 10 5 L 0 10 z" fill="#666666" />
    </marker>
  </defs>
  <rect x="0" y="0" width="1800" height="406" fill="#ffffff" />
  <text x="40" y="31.0" font-family="Helvetica,Arial,sans-serif" font-size="18" font-weight="bold" fill="#111111" text-anchor="start">Auth module — request trace (URI → Guard → DTO → Controller → Service → DB → Response)</text>
  <rect x="40" y="60" width="240" height="34" rx="8" ry="8" fill="#f0f0f0" stroke="#333333" stroke-width="1.5" /><text font-family="Helvetica,Arial,sans-serif" font-size="12" font-weight="bold" fill="#111111" text-anchor="middle"><tspan x="160.0" y="81.0">URI</tspan></text>
  <rect x="310" y="60" width="200" height="34" rx="8" ry="8" fill="#f0f0f0" stroke="#333333" stroke-width="1.5" /><text font-family="Helvetica,Arial,sans-serif" font-size="12" font-weight="bold" fill="#111111" text-anchor="middle"><tspan x="410.0" y="81.0">Guards</tspan></text>
  <rect x="540" y="60" width="200" height="34" rx="8" ry="8" fill="#f0f0f0" stroke="#333333" stroke-width="1.5" /><text font-family="Helvetica,Arial,sans-serif" font-size="12" font-weight="bold" fill="#111111" text-anchor="middle"><tspan x="640.0" y="81.0">Request DTO</tspan></text>
  <rect x="770" y="60" width="230" height="34" rx="8" ry="8" fill="#f0f0f0" stroke="#333333" stroke-width="1.5" /><text font-family="Helvetica,Arial,sans-serif" font-size="12" font-weight="bold" fill="#111111" text-anchor="middle"><tspan x="885.0" y="81.0">Controller</tspan></text>
  <rect x="1030" y="60" width="230" height="34" rx="8" ry="8" fill="#f0f0f0" stroke="#333333" stroke-width="1.5" /><text font-family="Helvetica,Arial,sans-serif" font-size="12" font-weight="bold" fill="#111111" text-anchor="middle"><tspan x="1145.0" y="81.0">Service</tspan></text>
  <rect x="1290" y="60" width="210" height="34" rx="8" ry="8" fill="#f0f0f0" stroke="#333333" stroke-width="1.5" /><text font-family="Helvetica,Arial,sans-serif" font-size="12" font-weight="bold" fill="#111111" text-anchor="middle"><tspan x="1395.0" y="81.0">DB Table(s)</tspan></text>
  <rect x="1530" y="60" width="230" height="34" rx="8" ry="8" fill="#f0f0f0" stroke="#333333" stroke-width="1.5" /><text font-family="Helvetica,Arial,sans-serif" font-size="12" font-weight="bold" fill="#111111" text-anchor="middle"><tspan x="1645.0" y="81.0">Response</tspan></text>
  <rect x="40" y="130" width="240" height="78" rx="8" ry="8" fill="#dae8fc" stroke="#6c8ebf" stroke-width="1.5" /><text font-family="Helvetica,Arial,sans-serif" font-size="12" font-weight="bold" fill="#1a3c6e" text-anchor="middle"><tspan x="160.0" y="173.0">POST /auth/register</tspan></text>
  <rect x="310" y="130" width="200" height="78" rx="8" ry="8" fill="#f5f5f5" stroke="#999999" stroke-width="1.5" /><text font-family="Helvetica,Arial,sans-serif" font-size="12" font-weight="normal" fill="#666666" text-anchor="middle"><tspan x="410.0" y="173.0">Public — no guard</tspan></text>
  <rect x="540" y="130" width="200" height="78" rx="8" ry="8" fill="#fff2cc" stroke="#d6b656" stroke-width="1.5" /><text font-family="Helvetica,Arial,sans-serif" font-size="12" font-weight="normal" fill="#7a5b00" text-anchor="middle"><tspan x="640.0" y="165.0">RegisterDto</tspan><tspan x="640.0" y="181.0">(class-validator)</tspan></text>
  <rect x="770" y="130" width="230" height="78" rx="8" ry="8" fill="#d5e8d4" stroke="#82b366" stroke-width="1.5" /><text font-family="Helvetica,Arial,sans-serif" font-size="12" font-weight="normal" fill="#274d19" text-anchor="middle"><tspan x="885.0" y="165.0">AuthController</tspan><tspan x="885.0" y="181.0">.register()</tspan></text>
  <rect x="1030" y="130" width="230" height="78" rx="8" ry="8" fill="#e1d5e7" stroke="#9673a6" stroke-width="1.5" /><text font-family="Helvetica,Arial,sans-serif" font-size="12" font-weight="normal" fill="#4a2f57" text-anchor="middle"><tspan x="1145.0" y="157.0">AuthService.register()</tspan><tspan x="1145.0" y="173.0">→ UsersService.create()</tspan><tspan x="1145.0" y="189.0">(bcrypt hash password)</tspan></text>
  <rect x="1290" y="130" width="210" height="78" rx="8" ry="8" fill="#ffe6cc" stroke="#d79b00" stroke-width="1.5" /><text font-family="Helvetica,Arial,sans-serif" font-size="12" font-weight="normal" fill="#7a4900" text-anchor="middle"><tspan x="1395.0" y="157.0">users</tspan><tspan x="1395.0" y="173.0">INSERT (role forced</tspan><tspan x="1395.0" y="189.0">to CUSTOMER)</tspan></text>
  <rect x="1530" y="130" width="230" height="78" rx="8" ry="8" fill="#d0e0e3" stroke="#10739e" stroke-width="1.5" /><text font-family="Helvetica,Arial,sans-serif" font-size="12" font-weight="normal" fill="#0b425a" text-anchor="middle"><tspan x="1645.0" y="157.0">201 Created</tspan><tspan x="1645.0" y="173.0">{accessToken,</tspan><tspan x="1645.0" y="189.0">refreshToken, role}</tspan></text>
  <path d="M 280 169.0 L 310 169.0" fill="none" stroke="#666666" stroke-width="1.5" marker-end="url(#arrow)" />
  <path d="M 510 169.0 L 540 169.0" fill="none" stroke="#666666" stroke-width="1.5" marker-end="url(#arrow)" />
  <path d="M 740 169.0 L 770 169.0" fill="none" stroke="#666666" stroke-width="1.5" marker-end="url(#arrow)" />
  <path d="M 1000 169.0 L 1030 169.0" fill="none" stroke="#666666" stroke-width="1.5" marker-end="url(#arrow)" />
  <path d="M 1260 169.0 L 1290 169.0" fill="none" stroke="#666666" stroke-width="1.5" marker-end="url(#arrow)" />
  <path d="M 1500 169.0 L 1530 169.0" fill="none" stroke="#666666" stroke-width="1.5" marker-end="url(#arrow)" />
  <rect x="40" y="248" width="240" height="78" rx="8" ry="8" fill="#dae8fc" stroke="#6c8ebf" stroke-width="1.5" /><text font-family="Helvetica,Arial,sans-serif" font-size="12" font-weight="bold" fill="#1a3c6e" text-anchor="middle"><tspan x="160.0" y="291.0">POST /auth/login</tspan></text>
  <rect x="310" y="248" width="200" height="78" rx="8" ry="8" fill="#f5f5f5" stroke="#999999" stroke-width="1.5" /><text font-family="Helvetica,Arial,sans-serif" font-size="12" font-weight="normal" fill="#666666" text-anchor="middle"><tspan x="410.0" y="291.0">Public — no guard</tspan></text>
  <rect x="540" y="248" width="200" height="78" rx="8" ry="8" fill="#fff2cc" stroke="#d6b656" stroke-width="1.5" /><text font-family="Helvetica,Arial,sans-serif" font-size="12" font-weight="normal" fill="#7a5b00" text-anchor="middle"><tspan x="640.0" y="291.0">LoginDto</tspan></text>
  <rect x="770" y="248" width="230" height="78" rx="8" ry="8" fill="#d5e8d4" stroke="#82b366" stroke-width="1.5" /><text font-family="Helvetica,Arial,sans-serif" font-size="12" font-weight="normal" fill="#274d19" text-anchor="middle"><tspan x="885.0" y="283.0">AuthController</tspan><tspan x="885.0" y="299.0">.login()</tspan></text>
  <rect x="1030" y="248" width="230" height="78" rx="8" ry="8" fill="#e1d5e7" stroke="#9673a6" stroke-width="1.5" /><text font-family="Helvetica,Arial,sans-serif" font-size="12" font-weight="normal" fill="#4a2f57" text-anchor="middle"><tspan x="1145.0" y="267.0">AuthService.login()</tspan><tspan x="1145.0" y="283.0">→ UsersService</tspan><tspan x="1145.0" y="299.0">.findByPhone() +</tspan><tspan x="1145.0" y="315.0">.validatePassword()</tspan></text>
  <rect x="1290" y="248" width="210" height="78" rx="8" ry="8" fill="#ffe6cc" stroke="#d79b00" stroke-width="1.5" /><text font-family="Helvetica,Arial,sans-serif" font-size="12" font-weight="normal" fill="#7a4900" text-anchor="middle"><tspan x="1395.0" y="283.0">users</tspan><tspan x="1395.0" y="299.0">SELECT WHERE phone</tspan></text>
  <rect x="1530" y="248" width="230" height="78" rx="8" ry="8" fill="#d0e0e3" stroke="#10739e" stroke-width="1.5" /><text font-family="Helvetica,Arial,sans-serif" font-size="12" font-weight="normal" fill="#0b425a" text-anchor="middle"><tspan x="1645.0" y="267.0">200 OK</tspan><tspan x="1645.0" y="283.0">{accessToken,</tspan><tspan x="1645.0" y="299.0">refreshToken, role}</tspan><tspan x="1645.0" y="315.0">or 401</tspan></text>
  <path d="M 280 287.0 L 310 287.0" fill="none" stroke="#666666" stroke-width="1.5" marker-end="url(#arrow)" />
  <path d="M 510 287.0 L 540 287.0" fill="none" stroke="#666666" stroke-width="1.5" marker-end="url(#arrow)" />
  <path d="M 740 287.0 L 770 287.0" fill="none" stroke="#666666" stroke-width="1.5" marker-end="url(#arrow)" />
  <path d="M 1000 287.0 L 1030 287.0" fill="none" stroke="#666666" stroke-width="1.5" marker-end="url(#arrow)" />
  <path d="M 1260 287.0 L 1290 287.0" fill="none" stroke="#666666" stroke-width="1.5" marker-end="url(#arrow)" />
  <path d="M 1500 287.0 L 1530 287.0" fill="none" stroke="#666666" stroke-width="1.5" marker-end="url(#arrow)" />
</svg>
