<svg xmlns="http://www.w3.org/2000/svg" width="1912" height="1390" viewBox="0 0 1912 1390" font-family="Helvetica,Arial,sans-serif">
  <defs>
    <marker id="arrow" viewBox="0 0 10 10" refX="9" refY="5" markerWidth="7" markerHeight="7" orient="auto-start-reverse">
      <path d="M 0 0 L 10 5 L 0 10 z" fill="#666666" />
    </marker>
  </defs>
  <rect x="0" y="0" width="1912" height="1390" fill="#ffffff" />
  <text x="40" y="31.0" font-family="Helvetica,Arial,sans-serif" font-size="18" font-weight="bold" fill="#111111" text-anchor="start">Catalog module — request trace</text>
  <rect x="40" y="60" width="220" height="34" rx="8" ry="8" fill="#f0f0f0" stroke="#333333" stroke-width="1.5" /><text font-family="Helvetica,Arial,sans-serif" font-size="12" font-weight="bold" fill="#111111" text-anchor="middle"><tspan x="150.0" y="81.0">URI</tspan></text>
  <rect x="286" y="60" width="190" height="34" rx="8" ry="8" fill="#f0f0f0" stroke="#333333" stroke-width="1.5" /><text font-family="Helvetica,Arial,sans-serif" font-size="12" font-weight="bold" fill="#111111" text-anchor="middle"><tspan x="381.0" y="81.0">Guards</tspan></text>
  <rect x="502" y="60" width="190" height="34" rx="8" ry="8" fill="#f0f0f0" stroke="#333333" stroke-width="1.5" /><text font-family="Helvetica,Arial,sans-serif" font-size="12" font-weight="bold" fill="#111111" text-anchor="middle"><tspan x="597.0" y="81.0">Request DTO</tspan></text>
  <rect x="718" y="60" width="210" height="34" rx="8" ry="8" fill="#f0f0f0" stroke="#333333" stroke-width="1.5" /><text font-family="Helvetica,Arial,sans-serif" font-size="12" font-weight="bold" fill="#111111" text-anchor="middle"><tspan x="823.0" y="81.0">Controller</tspan></text>
  <rect x="954" y="60" width="210" height="34" rx="8" ry="8" fill="#f0f0f0" stroke="#333333" stroke-width="1.5" /><text font-family="Helvetica,Arial,sans-serif" font-size="12" font-weight="bold" fill="#111111" text-anchor="middle"><tspan x="1059.0" y="81.0">Service</tspan></text>
  <rect x="1190" y="60" width="210" height="34" rx="8" ry="8" fill="#f0f0f0" stroke="#333333" stroke-width="1.5" /><text font-family="Helvetica,Arial,sans-serif" font-size="12" font-weight="bold" fill="#111111" text-anchor="middle"><tspan x="1295.0" y="81.0">Repository (DAO)</tspan></text>
  <rect x="1426" y="60" width="210" height="34" rx="8" ry="8" fill="#f0f0f0" stroke="#333333" stroke-width="1.5" /><text font-family="Helvetica,Arial,sans-serif" font-size="12" font-weight="bold" fill="#111111" text-anchor="middle"><tspan x="1531.0" y="81.0">Entity (POJO)</tspan></text>
  <rect x="1662" y="60" width="210" height="34" rx="8" ry="8" fill="#f0f0f0" stroke="#333333" stroke-width="1.5" /><text font-family="Helvetica,Arial,sans-serif" font-size="12" font-weight="bold" fill="#111111" text-anchor="middle"><tspan x="1767.0" y="81.0">Response</tspan></text>
  <rect x="40" y="130" width="220" height="82" rx="8" ry="8" fill="#dae8fc" stroke="#6c8ebf" stroke-width="1.5" /><text font-family="Helvetica,Arial,sans-serif" font-size="12" font-weight="bold" fill="#1a3c6e" text-anchor="middle"><tspan x="150.0" y="175.0">GET /catalog/tests</tspan></text>
  <rect x="286" y="130" width="190" height="82" rx="8" ry="8" fill="#f5f5f5" stroke="#999999" stroke-width="1.5" /><text font-family="Helvetica,Arial,sans-serif" font-size="12" font-weight="normal" fill="#666666" text-anchor="middle"><tspan x="381.0" y="175.0">Public — no guard</tspan></text>
  <rect x="502" y="130" width="190" height="82" rx="8" ry="8" fill="#f5f5f5" stroke="#999999" stroke-width="1.5" /><text font-family="Helvetica,Arial,sans-serif" font-size="12" font-weight="normal" fill="#666666" text-anchor="middle"><tspan x="597.0" y="175.0">none</tspan></text>
  <rect x="718" y="130" width="210" height="82" rx="8" ry="8" fill="#d5e8d4" stroke="#82b366" stroke-width="1.5" /><text font-family="Helvetica,Arial,sans-serif" font-size="12" font-weight="normal" fill="#274d19" text-anchor="middle"><tspan x="823.0" y="167.0">TestsController</tspan><tspan x="823.0" y="183.0">.findAll()</tspan></text>
  <rect x="954" y="130" width="210" height="82" rx="8" ry="8" fill="#e1d5e7" stroke="#9673a6" stroke-width="1.5" /><text font-family="Helvetica,Arial,sans-serif" font-size="12" font-weight="normal" fill="#4a2f57" text-anchor="middle"><tspan x="1059.0" y="167.0">TestsService</tspan><tspan x="1059.0" y="183.0">.findAllActive()</tspan></text>
  <rect x="1190" y="130" width="210" height="82" rx="8" ry="8" fill="#ffe6cc" stroke="#d79b00" stroke-width="1.5" /><text font-family="Helvetica,Arial,sans-serif" font-size="12" font-weight="normal" fill="#7a4900" text-anchor="middle"><tspan x="1295.0" y="167.0">testsRepo.find()</tspan><tspan x="1295.0" y="183.0">{where: isActive}</tspan></text>
  <rect x="1426" y="130" width="210" height="82" rx="8" ry="8" fill="#f5deff" stroke="#a366cc" stroke-width="1.5" /><text font-family="Helvetica,Arial,sans-serif" font-size="12" font-weight="normal" fill="#5a1f80" text-anchor="middle"><tspan x="1531.0" y="159.0">Test (POJO)</tspan><tspan x="1531.0" y="175.0">@Entity('tests')</tspan><tspan x="1531.0" y="191.0">→ tests table</tspan></text>
  <rect x="1662" y="130" width="210" height="82" rx="8" ry="8" fill="#d0e0e3" stroke="#10739e" stroke-width="1.5" /><text font-family="Helvetica,Arial,sans-serif" font-size="12" font-weight="normal" fill="#0b425a" text-anchor="middle"><tspan x="1767.0" y="167.0">200 OK</tspan><tspan x="1767.0" y="183.0">Test[]</tspan></text>
  <path d="M 260 171.0 L 286 171.0" fill="none" stroke="#666666" stroke-width="1.5" marker-end="url(#arrow)" />
  <path d="M 476 171.0 L 502 171.0" fill="none" stroke="#666666" stroke-width="1.5" marker-end="url(#arrow)" />
  <path d="M 692 171.0 L 718 171.0" fill="none" stroke="#666666" stroke-width="1.5" marker-end="url(#arrow)" />
  <path d="M 928 171.0 L 954 171.0" fill="none" stroke="#666666" stroke-width="1.5" marker-end="url(#arrow)" />
  <path d="M 1164 171.0 L 1190 171.0" fill="none" stroke="#666666" stroke-width="1.5" marker-end="url(#arrow)" />
  <path d="M 1400 171.0 L 1426 171.0" fill="none" stroke="#666666" stroke-width="1.5" marker-end="url(#arrow)" />
  <path d="M 1636 171.0 L 1662 171.0" fill="none" stroke="#666666" stroke-width="1.5" marker-end="url(#arrow)" />
  <rect x="40" y="252" width="220" height="82" rx="8" ry="8" fill="#dae8fc" stroke="#6c8ebf" stroke-width="1.5" /><text font-family="Helvetica,Arial,sans-serif" font-size="12" font-weight="bold" fill="#1a3c6e" text-anchor="middle"><tspan x="150.0" y="297.0">GET /catalog/tests/:id</tspan></text>
  <rect x="286" y="252" width="190" height="82" rx="8" ry="8" fill="#f5f5f5" stroke="#999999" stroke-width="1.5" /><text font-family="Helvetica,Arial,sans-serif" font-size="12" font-weight="normal" fill="#666666" text-anchor="middle"><tspan x="381.0" y="297.0">Public — no guard</tspan></text>
  <rect x="502" y="252" width="190" height="82" rx="8" ry="8" fill="#fff2cc" stroke="#d6b656" stroke-width="1.5" /><text font-family="Helvetica,Arial,sans-serif" font-size="12" font-weight="normal" fill="#7a5b00" text-anchor="middle"><tspan x="597.0" y="297.0">none (Param id)</tspan></text>
  <rect x="718" y="252" width="210" height="82" rx="8" ry="8" fill="#d5e8d4" stroke="#82b366" stroke-width="1.5" /><text font-family="Helvetica,Arial,sans-serif" font-size="12" font-weight="normal" fill="#274d19" text-anchor="middle"><tspan x="823.0" y="289.0">TestsController</tspan><tspan x="823.0" y="305.0">.findOne()</tspan></text>
  <rect x="954" y="252" width="210" height="82" rx="8" ry="8" fill="#e1d5e7" stroke="#9673a6" stroke-width="1.5" /><text font-family="Helvetica,Arial,sans-serif" font-size="12" font-weight="normal" fill="#4a2f57" text-anchor="middle"><tspan x="1059.0" y="289.0">TestsService</tspan><tspan x="1059.0" y="305.0">.findOne()</tspan></text>
  <rect x="1190" y="252" width="210" height="82" rx="8" ry="8" fill="#ffe6cc" stroke="#d79b00" stroke-width="1.5" /><text font-family="Helvetica,Arial,sans-serif" font-size="12" font-weight="normal" fill="#7a4900" text-anchor="middle"><tspan x="1295.0" y="289.0">testsRepo.findOne()</tspan><tspan x="1295.0" y="305.0">{where: id}</tspan></text>
  <rect x="1426" y="252" width="210" height="82" rx="8" ry="8" fill="#f5deff" stroke="#a366cc" stroke-width="1.5" /><text font-family="Helvetica,Arial,sans-serif" font-size="12" font-weight="normal" fill="#5a1f80" text-anchor="middle"><tspan x="1531.0" y="289.0">Test (POJO)</tspan><tspan x="1531.0" y="305.0">→ tests table</tspan></text>
  <rect x="1662" y="252" width="210" height="82" rx="8" ry="8" fill="#d0e0e3" stroke="#10739e" stroke-width="1.5" /><text font-family="Helvetica,Arial,sans-serif" font-size="12" font-weight="normal" fill="#0b425a" text-anchor="middle"><tspan x="1767.0" y="289.0">200 OK Test</tspan><tspan x="1767.0" y="305.0">or 404</tspan></text>
  <path d="M 260 293.0 L 286 293.0" fill="none" stroke="#666666" stroke-width="1.5" marker-end="url(#arrow)" />
  <path d="M 476 293.0 L 502 293.0" fill="none" stroke="#666666" stroke-width="1.5" marker-end="url(#arrow)" />
  <path d="M 692 293.0 L 718 293.0" fill="none" stroke="#666666" stroke-width="1.5" marker-end="url(#arrow)" />
  <path d="M 928 293.0 L 954 293.0" fill="none" stroke="#666666" stroke-width="1.5" marker-end="url(#arrow)" />
  <path d="M 1164 293.0 L 1190 293.0" fill="none" stroke="#666666" stroke-width="1.5" marker-end="url(#arrow)" />
  <path d="M 1400 293.0 L 1426 293.0" fill="none" stroke="#666666" stroke-width="1.5" marker-end="url(#arrow)" />
  <path d="M 1636 293.0 L 1662 293.0" fill="none" stroke="#666666" stroke-width="1.5" marker-end="url(#arrow)" />
  <rect x="40" y="374" width="220" height="82" rx="8" ry="8" fill="#dae8fc" stroke="#6c8ebf" stroke-width="1.5" /><text font-family="Helvetica,Arial,sans-serif" font-size="12" font-weight="bold" fill="#1a3c6e" text-anchor="middle"><tspan x="150.0" y="419.0">POST /catalog/tests</tspan></text>
  <rect x="286" y="374" width="190" height="82" rx="8" ry="8" fill="#f8cecc" stroke="#b85450" stroke-width="1.5" /><text font-family="Helvetica,Arial,sans-serif" font-size="12" font-weight="normal" fill="#7c1f1a" text-anchor="middle"><tspan x="381.0" y="411.0">JwtAuthGuard +</tspan><tspan x="381.0" y="427.0">RolesGuard(ADMIN)</tspan></text>
  <rect x="502" y="374" width="190" height="82" rx="8" ry="8" fill="#fff2cc" stroke="#d6b656" stroke-width="1.5" /><text font-family="Helvetica,Arial,sans-serif" font-size="12" font-weight="normal" fill="#7a5b00" text-anchor="middle"><tspan x="597.0" y="419.0">CreateTestDto</tspan></text>
  <rect x="718" y="374" width="210" height="82" rx="8" ry="8" fill="#d5e8d4" stroke="#82b366" stroke-width="1.5" /><text font-family="Helvetica,Arial,sans-serif" font-size="12" font-weight="normal" fill="#274d19" text-anchor="middle"><tspan x="823.0" y="411.0">TestsController</tspan><tspan x="823.0" y="427.0">.create()</tspan></text>
  <rect x="954" y="374" width="210" height="82" rx="8" ry="8" fill="#e1d5e7" stroke="#9673a6" stroke-width="1.5" /><text font-family="Helvetica,Arial,sans-serif" font-size="12" font-weight="normal" fill="#4a2f57" text-anchor="middle"><tspan x="1059.0" y="411.0">TestsService</tspan><tspan x="1059.0" y="427.0">.create()</tspan></text>
  <rect x="1190" y="374" width="210" height="82" rx="8" ry="8" fill="#ffe6cc" stroke="#d79b00" stroke-width="1.5" /><text font-family="Helvetica,Arial,sans-serif" font-size="12" font-weight="normal" fill="#7a4900" text-anchor="middle"><tspan x="1295.0" y="411.0">testsRepo.create(dto)</tspan><tspan x="1295.0" y="427.0">testsRepo.save()</tspan></text>
  <rect x="1426" y="374" width="210" height="82" rx="8" ry="8" fill="#f5deff" stroke="#a366cc" stroke-width="1.5" /><text font-family="Helvetica,Arial,sans-serif" font-size="12" font-weight="normal" fill="#5a1f80" text-anchor="middle"><tspan x="1531.0" y="411.0">Test (POJO)</tspan><tspan x="1531.0" y="427.0">→ tests table (INSERT)</tspan></text>
  <rect x="1662" y="374" width="210" height="82" rx="8" ry="8" fill="#d0e0e3" stroke="#10739e" stroke-width="1.5" /><text font-family="Helvetica,Arial,sans-serif" font-size="12" font-weight="normal" fill="#0b425a" text-anchor="middle"><tspan x="1767.0" y="411.0">201 Created</tspan><tspan x="1767.0" y="427.0">Test</tspan></text>
  <path d="M 260 415.0 L 286 415.0" fill="none" stroke="#666666" stroke-width="1.5" marker-end="url(#arrow)" />
  <path d="M 476 415.0 L 502 415.0" fill="none" stroke="#666666" stroke-width="1.5" marker-end="url(#arrow)" />
  <path d="M 692 415.0 L 718 415.0" fill="none" stroke="#666666" stroke-width="1.5" marker-end="url(#arrow)" />
  <path d="M 928 415.0 L 954 415.0" fill="none" stroke="#666666" stroke-width="1.5" marker-end="url(#arrow)" />
  <path d="M 1164 415.0 L 1190 415.0" fill="none" stroke="#666666" stroke-width="1.5" marker-end="url(#arrow)" />
  <path d="M 1400 415.0 L 1426 415.0" fill="none" stroke="#666666" stroke-width="1.5" marker-end="url(#arrow)" />
  <path d="M 1636 415.0 L 1662 415.0" fill="none" stroke="#666666" stroke-width="1.5" marker-end="url(#arrow)" />
  <rect x="40" y="496" width="220" height="82" rx="8" ry="8" fill="#dae8fc" stroke="#6c8ebf" stroke-width="1.5" /><text font-family="Helvetica,Arial,sans-serif" font-size="12" font-weight="bold" fill="#1a3c6e" text-anchor="middle"><tspan x="150.0" y="541.0">PATCH /catalog/tests/:id</tspan></text>
  <rect x="286" y="496" width="190" height="82" rx="8" ry="8" fill="#f8cecc" stroke="#b85450" stroke-width="1.5" /><text font-family="Helvetica,Arial,sans-serif" font-size="12" font-weight="normal" fill="#7c1f1a" text-anchor="middle"><tspan x="381.0" y="533.0">JwtAuthGuard +</tspan><tspan x="381.0" y="549.0">RolesGuard(ADMIN)</tspan></text>
  <rect x="502" y="496" width="190" height="82" rx="8" ry="8" fill="#fff2cc" stroke="#d6b656" stroke-width="1.5" /><text font-family="Helvetica,Arial,sans-serif" font-size="12" font-weight="normal" fill="#7a5b00" text-anchor="middle"><tspan x="597.0" y="533.0">UpdateTestDto</tspan><tspan x="597.0" y="549.0">(PartialType)</tspan></text>
  <rect x="718" y="496" width="210" height="82" rx="8" ry="8" fill="#d5e8d4" stroke="#82b366" stroke-width="1.5" /><text font-family="Helvetica,Arial,sans-serif" font-size="12" font-weight="normal" fill="#274d19" text-anchor="middle"><tspan x="823.0" y="533.0">TestsController</tspan><tspan x="823.0" y="549.0">.update()</tspan></text>
  <rect x="954" y="496" width="210" height="82" rx="8" ry="8" fill="#e1d5e7" stroke="#9673a6" stroke-width="1.5" /><text font-family="Helvetica,Arial,sans-serif" font-size="12" font-weight="normal" fill="#4a2f57" text-anchor="middle"><tspan x="1059.0" y="533.0">TestsService</tspan><tspan x="1059.0" y="549.0">.update()</tspan></text>
  <rect x="1190" y="496" width="210" height="82" rx="8" ry="8" fill="#ffe6cc" stroke="#d79b00" stroke-width="1.5" /><text font-family="Helvetica,Arial,sans-serif" font-size="12" font-weight="normal" fill="#7a4900" text-anchor="middle"><tspan x="1295.0" y="533.0">testsRepo.findOne()</tspan><tspan x="1295.0" y="549.0">testsRepo.save()</tspan></text>
  <rect x="1426" y="496" width="210" height="82" rx="8" ry="8" fill="#f5deff" stroke="#a366cc" stroke-width="1.5" /><text font-family="Helvetica,Arial,sans-serif" font-size="12" font-weight="normal" fill="#5a1f80" text-anchor="middle"><tspan x="1531.0" y="533.0">Test (POJO)</tspan><tspan x="1531.0" y="549.0">→ tests table (UPDATE)</tspan></text>
  <rect x="1662" y="496" width="210" height="82" rx="8" ry="8" fill="#d0e0e3" stroke="#10739e" stroke-width="1.5" /><text font-family="Helvetica,Arial,sans-serif" font-size="12" font-weight="normal" fill="#0b425a" text-anchor="middle"><tspan x="1767.0" y="541.0">200 OK Test</tspan></text>
  <path d="M 260 537.0 L 286 537.0" fill="none" stroke="#666666" stroke-width="1.5" marker-end="url(#arrow)" />
  <path d="M 476 537.0 L 502 537.0" fill="none" stroke="#666666" stroke-width="1.5" marker-end="url(#arrow)" />
  <path d="M 692 537.0 L 718 537.0" fill="none" stroke="#666666" stroke-width="1.5" marker-end="url(#arrow)" />
  <path d="M 928 537.0 L 954 537.0" fill="none" stroke="#666666" stroke-width="1.5" marker-end="url(#arrow)" />
  <path d="M 1164 537.0 L 1190 537.0" fill="none" stroke="#666666" stroke-width="1.5" marker-end="url(#arrow)" />
  <path d="M 1400 537.0 L 1426 537.0" fill="none" stroke="#666666" stroke-width="1.5" marker-end="url(#arrow)" />
  <path d="M 1636 537.0 L 1662 537.0" fill="none" stroke="#666666" stroke-width="1.5" marker-end="url(#arrow)" />
  <rect x="40" y="618" width="220" height="82" rx="8" ry="8" fill="#dae8fc" stroke="#6c8ebf" stroke-width="1.5" /><text font-family="Helvetica,Arial,sans-serif" font-size="12" font-weight="bold" fill="#1a3c6e" text-anchor="middle"><tspan x="150.0" y="663.0">DELETE /catalog/tests/:id</tspan></text>
  <rect x="286" y="618" width="190" height="82" rx="8" ry="8" fill="#f8cecc" stroke="#b85450" stroke-width="1.5" /><text font-family="Helvetica,Arial,sans-serif" font-size="12" font-weight="normal" fill="#7c1f1a" text-anchor="middle"><tspan x="381.0" y="655.0">JwtAuthGuard +</tspan><tspan x="381.0" y="671.0">RolesGuard(ADMIN)</tspan></text>
  <rect x="502" y="618" width="190" height="82" rx="8" ry="8" fill="#f5f5f5" stroke="#999999" stroke-width="1.5" /><text font-family="Helvetica,Arial,sans-serif" font-size="12" font-weight="normal" fill="#666666" text-anchor="middle"><tspan x="597.0" y="663.0">none</tspan></text>
  <rect x="718" y="618" width="210" height="82" rx="8" ry="8" fill="#d5e8d4" stroke="#82b366" stroke-width="1.5" /><text font-family="Helvetica,Arial,sans-serif" font-size="12" font-weight="normal" fill="#274d19" text-anchor="middle"><tspan x="823.0" y="655.0">TestsController</tspan><tspan x="823.0" y="671.0">.remove()</tspan></text>
  <rect x="954" y="618" width="210" height="82" rx="8" ry="8" fill="#e1d5e7" stroke="#9673a6" stroke-width="1.5" /><text font-family="Helvetica,Arial,sans-serif" font-size="12" font-weight="normal" fill="#4a2f57" text-anchor="middle"><tspan x="1059.0" y="647.0">TestsService</tspan><tspan x="1059.0" y="663.0">.remove()</tspan><tspan x="1059.0" y="679.0">(soft delete)</tspan></text>
  <rect x="1190" y="618" width="210" height="82" rx="8" ry="8" fill="#ffe6cc" stroke="#d79b00" stroke-width="1.5" /><text font-family="Helvetica,Arial,sans-serif" font-size="12" font-weight="normal" fill="#7a4900" text-anchor="middle"><tspan x="1295.0" y="655.0">testsRepo.findOne()</tspan><tspan x="1295.0" y="671.0">testsRepo.save()</tspan></text>
  <rect x="1426" y="618" width="210" height="82" rx="8" ry="8" fill="#f5deff" stroke="#a366cc" stroke-width="1.5" /><text font-family="Helvetica,Arial,sans-serif" font-size="12" font-weight="normal" fill="#5a1f80" text-anchor="middle"><tspan x="1531.0" y="655.0">Test (POJO)</tspan><tspan x="1531.0" y="671.0">→ tests.is_active=false</tspan></text>
  <rect x="1662" y="618" width="210" height="82" rx="8" ry="8" fill="#d0e0e3" stroke="#10739e" stroke-width="1.5" /><text font-family="Helvetica,Arial,sans-serif" font-size="12" font-weight="normal" fill="#0b425a" text-anchor="middle"><tspan x="1767.0" y="663.0">200 OK</tspan></text>
  <path d="M 260 659.0 L 286 659.0" fill="none" stroke="#666666" stroke-width="1.5" marker-end="url(#arrow)" />
  <path d="M 476 659.0 L 502 659.0" fill="none" stroke="#666666" stroke-width="1.5" marker-end="url(#arrow)" />
  <path d="M 692 659.0 L 718 659.0" fill="none" stroke="#666666" stroke-width="1.5" marker-end="url(#arrow)" />
  <path d="M 928 659.0 L 954 659.0" fill="none" stroke="#666666" stroke-width="1.5" marker-end="url(#arrow)" />
  <path d="M 1164 659.0 L 1190 659.0" fill="none" stroke="#666666" stroke-width="1.5" marker-end="url(#arrow)" />
  <path d="M 1400 659.0 L 1426 659.0" fill="none" stroke="#666666" stroke-width="1.5" marker-end="url(#arrow)" />
  <path d="M 1636 659.0 L 1662 659.0" fill="none" stroke="#666666" stroke-width="1.5" marker-end="url(#arrow)" />
  <rect x="40" y="740" width="220" height="82" rx="8" ry="8" fill="#dae8fc" stroke="#6c8ebf" stroke-width="1.5" /><text font-family="Helvetica,Arial,sans-serif" font-size="12" font-weight="bold" fill="#1a3c6e" text-anchor="middle"><tspan x="150.0" y="785.0">GET /catalog/packages</tspan></text>
  <rect x="286" y="740" width="190" height="82" rx="8" ry="8" fill="#f5f5f5" stroke="#999999" stroke-width="1.5" /><text font-family="Helvetica,Arial,sans-serif" font-size="12" font-weight="normal" fill="#666666" text-anchor="middle"><tspan x="381.0" y="785.0">Public — no guard</tspan></text>
  <rect x="502" y="740" width="190" height="82" rx="8" ry="8" fill="#f5f5f5" stroke="#999999" stroke-width="1.5" /><text font-family="Helvetica,Arial,sans-serif" font-size="12" font-weight="normal" fill="#666666" text-anchor="middle"><tspan x="597.0" y="785.0">none</tspan></text>
  <rect x="718" y="740" width="210" height="82" rx="8" ry="8" fill="#d5e8d4" stroke="#82b366" stroke-width="1.5" /><text font-family="Helvetica,Arial,sans-serif" font-size="12" font-weight="normal" fill="#274d19" text-anchor="middle"><tspan x="823.0" y="777.0">PackagesController</tspan><tspan x="823.0" y="793.0">.findAll()</tspan></text>
  <rect x="954" y="740" width="210" height="82" rx="8" ry="8" fill="#e1d5e7" stroke="#9673a6" stroke-width="1.5" /><text font-family="Helvetica,Arial,sans-serif" font-size="12" font-weight="normal" fill="#4a2f57" text-anchor="middle"><tspan x="1059.0" y="777.0">PackagesService</tspan><tspan x="1059.0" y="793.0">.findAllActive()</tspan></text>
  <rect x="1190" y="740" width="210" height="82" rx="8" ry="8" fill="#ffe6cc" stroke="#d79b00" stroke-width="1.5" /><text font-family="Helvetica,Arial,sans-serif" font-size="12" font-weight="normal" fill="#7a4900" text-anchor="middle"><tspan x="1295.0" y="777.0">packagesRepo.find()</tspan><tspan x="1295.0" y="793.0">{relations: ['tests']}</tspan></text>
  <rect x="1426" y="740" width="210" height="82" rx="8" ry="8" fill="#f5deff" stroke="#a366cc" stroke-width="1.5" /><text font-family="Helvetica,Arial,sans-serif" font-size="12" font-weight="normal" fill="#5a1f80" text-anchor="middle"><tspan x="1531.0" y="761.0">Package (POJO)</tspan><tspan x="1531.0" y="777.0">@Entity('packages')</tspan><tspan x="1531.0" y="793.0">→ packages,</tspan><tspan x="1531.0" y="809.0">package_tests, tests</tspan></text>
  <rect x="1662" y="740" width="210" height="82" rx="8" ry="8" fill="#d0e0e3" stroke="#10739e" stroke-width="1.5" /><text font-family="Helvetica,Arial,sans-serif" font-size="12" font-weight="normal" fill="#0b425a" text-anchor="middle"><tspan x="1767.0" y="777.0">200 OK</tspan><tspan x="1767.0" y="793.0">Package[]</tspan></text>
  <path d="M 260 781.0 L 286 781.0" fill="none" stroke="#666666" stroke-width="1.5" marker-end="url(#arrow)" />
  <path d="M 476 781.0 L 502 781.0" fill="none" stroke="#666666" stroke-width="1.5" marker-end="url(#arrow)" />
  <path d="M 692 781.0 L 718 781.0" fill="none" stroke="#666666" stroke-width="1.5" marker-end="url(#arrow)" />
  <path d="M 928 781.0 L 954 781.0" fill="none" stroke="#666666" stroke-width="1.5" marker-end="url(#arrow)" />
  <path d="M 1164 781.0 L 1190 781.0" fill="none" stroke="#666666" stroke-width="1.5" marker-end="url(#arrow)" />
  <path d="M 1400 781.0 L 1426 781.0" fill="none" stroke="#666666" stroke-width="1.5" marker-end="url(#arrow)" />
  <path d="M 1636 781.0 L 1662 781.0" fill="none" stroke="#666666" stroke-width="1.5" marker-end="url(#arrow)" />
  <rect x="40" y="862" width="220" height="82" rx="8" ry="8" fill="#dae8fc" stroke="#6c8ebf" stroke-width="1.5" /><text font-family="Helvetica,Arial,sans-serif" font-size="12" font-weight="bold" fill="#1a3c6e" text-anchor="middle"><tspan x="150.0" y="907.0">GET /catalog/packages/:id</tspan></text>
  <rect x="286" y="862" width="190" height="82" rx="8" ry="8" fill="#f5f5f5" stroke="#999999" stroke-width="1.5" /><text font-family="Helvetica,Arial,sans-serif" font-size="12" font-weight="normal" fill="#666666" text-anchor="middle"><tspan x="381.0" y="907.0">Public — no guard</tspan></text>
  <rect x="502" y="862" width="190" height="82" rx="8" ry="8" fill="#f5f5f5" stroke="#999999" stroke-width="1.5" /><text font-family="Helvetica,Arial,sans-serif" font-size="12" font-weight="normal" fill="#666666" text-anchor="middle"><tspan x="597.0" y="907.0">none</tspan></text>
  <rect x="718" y="862" width="210" height="82" rx="8" ry="8" fill="#d5e8d4" stroke="#82b366" stroke-width="1.5" /><text font-family="Helvetica,Arial,sans-serif" font-size="12" font-weight="normal" fill="#274d19" text-anchor="middle"><tspan x="823.0" y="899.0">PackagesController</tspan><tspan x="823.0" y="915.0">.findOne()</tspan></text>
  <rect x="954" y="862" width="210" height="82" rx="8" ry="8" fill="#e1d5e7" stroke="#9673a6" stroke-width="1.5" /><text font-family="Helvetica,Arial,sans-serif" font-size="12" font-weight="normal" fill="#4a2f57" text-anchor="middle"><tspan x="1059.0" y="899.0">PackagesService</tspan><tspan x="1059.0" y="915.0">.findOne()</tspan></text>
  <rect x="1190" y="862" width="210" height="82" rx="8" ry="8" fill="#ffe6cc" stroke="#d79b00" stroke-width="1.5" /><text font-family="Helvetica,Arial,sans-serif" font-size="12" font-weight="normal" fill="#7a4900" text-anchor="middle"><tspan x="1295.0" y="899.0">packagesRepo.findOne()</tspan><tspan x="1295.0" y="915.0">{relations: ['tests']}</tspan></text>
  <rect x="1426" y="862" width="210" height="82" rx="8" ry="8" fill="#f5deff" stroke="#a366cc" stroke-width="1.5" /><text font-family="Helvetica,Arial,sans-serif" font-size="12" font-weight="normal" fill="#5a1f80" text-anchor="middle"><tspan x="1531.0" y="891.0">Package (POJO)</tspan><tspan x="1531.0" y="907.0">→ packages,</tspan><tspan x="1531.0" y="923.0">package_tests, tests</tspan></text>
  <rect x="1662" y="862" width="210" height="82" rx="8" ry="8" fill="#d0e0e3" stroke="#10739e" stroke-width="1.5" /><text font-family="Helvetica,Arial,sans-serif" font-size="12" font-weight="normal" fill="#0b425a" text-anchor="middle"><tspan x="1767.0" y="899.0">200 OK Package</tspan><tspan x="1767.0" y="915.0">or 404</tspan></text>
  <path d="M 260 903.0 L 286 903.0" fill="none" stroke="#666666" stroke-width="1.5" marker-end="url(#arrow)" />
  <path d="M 476 903.0 L 502 903.0" fill="none" stroke="#666666" stroke-width="1.5" marker-end="url(#arrow)" />
  <path d="M 692 903.0 L 718 903.0" fill="none" stroke="#666666" stroke-width="1.5" marker-end="url(#arrow)" />
  <path d="M 928 903.0 L 954 903.0" fill="none" stroke="#666666" stroke-width="1.5" marker-end="url(#arrow)" />
  <path d="M 1164 903.0 L 1190 903.0" fill="none" stroke="#666666" stroke-width="1.5" marker-end="url(#arrow)" />
  <path d="M 1400 903.0 L 1426 903.0" fill="none" stroke="#666666" stroke-width="1.5" marker-end="url(#arrow)" />
  <path d="M 1636 903.0 L 1662 903.0" fill="none" stroke="#666666" stroke-width="1.5" marker-end="url(#arrow)" />
  <rect x="40" y="984" width="220" height="82" rx="8" ry="8" fill="#dae8fc" stroke="#6c8ebf" stroke-width="1.5" /><text font-family="Helvetica,Arial,sans-serif" font-size="12" font-weight="bold" fill="#1a3c6e" text-anchor="middle"><tspan x="150.0" y="1029.0">POST /catalog/packages</tspan></text>
  <rect x="286" y="984" width="190" height="82" rx="8" ry="8" fill="#f8cecc" stroke="#b85450" stroke-width="1.5" /><text font-family="Helvetica,Arial,sans-serif" font-size="12" font-weight="normal" fill="#7c1f1a" text-anchor="middle"><tspan x="381.0" y="1021.0">JwtAuthGuard +</tspan><tspan x="381.0" y="1037.0">RolesGuard(ADMIN)</tspan></text>
  <rect x="502" y="984" width="190" height="82" rx="8" ry="8" fill="#fff2cc" stroke="#d6b656" stroke-width="1.5" /><text font-family="Helvetica,Arial,sans-serif" font-size="12" font-weight="normal" fill="#7a5b00" text-anchor="middle"><tspan x="597.0" y="1021.0">CreatePackageDto</tspan><tspan x="597.0" y="1037.0">(incl. testIds[])</tspan></text>
  <rect x="718" y="984" width="210" height="82" rx="8" ry="8" fill="#d5e8d4" stroke="#82b366" stroke-width="1.5" /><text font-family="Helvetica,Arial,sans-serif" font-size="12" font-weight="normal" fill="#274d19" text-anchor="middle"><tspan x="823.0" y="1021.0">PackagesController</tspan><tspan x="823.0" y="1037.0">.create()</tspan></text>
  <rect x="954" y="984" width="210" height="82" rx="8" ry="8" fill="#e1d5e7" stroke="#9673a6" stroke-width="1.5" /><text font-family="Helvetica,Arial,sans-serif" font-size="12" font-weight="normal" fill="#4a2f57" text-anchor="middle"><tspan x="1059.0" y="1013.0">PackagesService</tspan><tspan x="1059.0" y="1029.0">.create()</tspan><tspan x="1059.0" y="1045.0">(resolves testIds)</tspan></text>
  <rect x="1190" y="984" width="210" height="82" rx="8" ry="8" fill="#ffe6cc" stroke="#d79b00" stroke-width="1.5" /><text font-family="Helvetica,Arial,sans-serif" font-size="12" font-weight="normal" fill="#7a4900" text-anchor="middle"><tspan x="1295.0" y="1013.0">testsRepo.findBy();</tspan><tspan x="1295.0" y="1029.0">packagesRepo.create()</tspan><tspan x="1295.0" y="1045.0">+save()</tspan></text>
  <rect x="1426" y="984" width="210" height="82" rx="8" ry="8" fill="#f5deff" stroke="#a366cc" stroke-width="1.5" /><text font-family="Helvetica,Arial,sans-serif" font-size="12" font-weight="normal" fill="#5a1f80" text-anchor="middle"><tspan x="1531.0" y="1013.0">Test + Package</tspan><tspan x="1531.0" y="1029.0">(POJOs) → tests,</tspan><tspan x="1531.0" y="1045.0">packages, package_tests</tspan></text>
  <rect x="1662" y="984" width="210" height="82" rx="8" ry="8" fill="#d0e0e3" stroke="#10739e" stroke-width="1.5" /><text font-family="Helvetica,Arial,sans-serif" font-size="12" font-weight="normal" fill="#0b425a" text-anchor="middle"><tspan x="1767.0" y="1021.0">201 Created</tspan><tspan x="1767.0" y="1037.0">Package</tspan></text>
  <path d="M 260 1025.0 L 286 1025.0" fill="none" stroke="#666666" stroke-width="1.5" marker-end="url(#arrow)" />
  <path d="M 476 1025.0 L 502 1025.0" fill="none" stroke="#666666" stroke-width="1.5" marker-end="url(#arrow)" />
  <path d="M 692 1025.0 L 718 1025.0" fill="none" stroke="#666666" stroke-width="1.5" marker-end="url(#arrow)" />
  <path d="M 928 1025.0 L 954 1025.0" fill="none" stroke="#666666" stroke-width="1.5" marker-end="url(#arrow)" />
  <path d="M 1164 1025.0 L 1190 1025.0" fill="none" stroke="#666666" stroke-width="1.5" marker-end="url(#arrow)" />
  <path d="M 1400 1025.0 L 1426 1025.0" fill="none" stroke="#666666" stroke-width="1.5" marker-end="url(#arrow)" />
  <path d="M 1636 1025.0 L 1662 1025.0" fill="none" stroke="#666666" stroke-width="1.5" marker-end="url(#arrow)" />
  <rect x="40" y="1106" width="220" height="82" rx="8" ry="8" fill="#dae8fc" stroke="#6c8ebf" stroke-width="1.5" /><text font-family="Helvetica,Arial,sans-serif" font-size="12" font-weight="bold" fill="#1a3c6e" text-anchor="middle"><tspan x="150.0" y="1151.0">PATCH /catalog/packages/:id</tspan></text>
  <rect x="286" y="1106" width="190" height="82" rx="8" ry="8" fill="#f8cecc" stroke="#b85450" stroke-width="1.5" /><text font-family="Helvetica,Arial,sans-serif" font-size="12" font-weight="normal" fill="#7c1f1a" text-anchor="middle"><tspan x="381.0" y="1143.0">JwtAuthGuard +</tspan><tspan x="381.0" y="1159.0">RolesGuard(ADMIN)</tspan></text>
  <rect x="502" y="1106" width="190" height="82" rx="8" ry="8" fill="#fff2cc" stroke="#d6b656" stroke-width="1.5" /><text font-family="Helvetica,Arial,sans-serif" font-size="12" font-weight="normal" fill="#7a5b00" text-anchor="middle"><tspan x="597.0" y="1151.0">UpdatePackageDto</tspan></text>
  <rect x="718" y="1106" width="210" height="82" rx="8" ry="8" fill="#d5e8d4" stroke="#82b366" stroke-width="1.5" /><text font-family="Helvetica,Arial,sans-serif" font-size="12" font-weight="normal" fill="#274d19" text-anchor="middle"><tspan x="823.0" y="1143.0">PackagesController</tspan><tspan x="823.0" y="1159.0">.update()</tspan></text>
  <rect x="954" y="1106" width="210" height="82" rx="8" ry="8" fill="#e1d5e7" stroke="#9673a6" stroke-width="1.5" /><text font-family="Helvetica,Arial,sans-serif" font-size="12" font-weight="normal" fill="#4a2f57" text-anchor="middle"><tspan x="1059.0" y="1143.0">PackagesService</tspan><tspan x="1059.0" y="1159.0">.update()</tspan></text>
  <rect x="1190" y="1106" width="210" height="82" rx="8" ry="8" fill="#ffe6cc" stroke="#d79b00" stroke-width="1.5" /><text font-family="Helvetica,Arial,sans-serif" font-size="12" font-weight="normal" fill="#7a4900" text-anchor="middle"><tspan x="1295.0" y="1135.0">packagesRepo.findOne()</tspan><tspan x="1295.0" y="1151.0">+save(); testsRepo</tspan><tspan x="1295.0" y="1167.0">.findBy() if testIds sent</tspan></text>
  <rect x="1426" y="1106" width="210" height="82" rx="8" ry="8" fill="#f5deff" stroke="#a366cc" stroke-width="1.5" /><text font-family="Helvetica,Arial,sans-serif" font-size="12" font-weight="normal" fill="#5a1f80" text-anchor="middle"><tspan x="1531.0" y="1135.0">Package (POJO)</tspan><tspan x="1531.0" y="1151.0">→ packages,</tspan><tspan x="1531.0" y="1167.0">package_tests</tspan></text>
  <rect x="1662" y="1106" width="210" height="82" rx="8" ry="8" fill="#d0e0e3" stroke="#10739e" stroke-width="1.5" /><text font-family="Helvetica,Arial,sans-serif" font-size="12" font-weight="normal" fill="#0b425a" text-anchor="middle"><tspan x="1767.0" y="1151.0">200 OK Package</tspan></text>
  <path d="M 260 1147.0 L 286 1147.0" fill="none" stroke="#666666" stroke-width="1.5" marker-end="url(#arrow)" />
  <path d="M 476 1147.0 L 502 1147.0" fill="none" stroke="#666666" stroke-width="1.5" marker-end="url(#arrow)" />
  <path d="M 692 1147.0 L 718 1147.0" fill="none" stroke="#666666" stroke-width="1.5" marker-end="url(#arrow)" />
  <path d="M 928 1147.0 L 954 1147.0" fill="none" stroke="#666666" stroke-width="1.5" marker-end="url(#arrow)" />
  <path d="M 1164 1147.0 L 1190 1147.0" fill="none" stroke="#666666" stroke-width="1.5" marker-end="url(#arrow)" />
  <path d="M 1400 1147.0 L 1426 1147.0" fill="none" stroke="#666666" stroke-width="1.5" marker-end="url(#arrow)" />
  <path d="M 1636 1147.0 L 1662 1147.0" fill="none" stroke="#666666" stroke-width="1.5" marker-end="url(#arrow)" />
  <rect x="40" y="1228" width="220" height="82" rx="8" ry="8" fill="#dae8fc" stroke="#6c8ebf" stroke-width="1.5" /><text font-family="Helvetica,Arial,sans-serif" font-size="12" font-weight="bold" fill="#1a3c6e" text-anchor="middle"><tspan x="150.0" y="1273.0">DELETE /catalog/packages/:id</tspan></text>
  <rect x="286" y="1228" width="190" height="82" rx="8" ry="8" fill="#f8cecc" stroke="#b85450" stroke-width="1.5" /><text font-family="Helvetica,Arial,sans-serif" font-size="12" font-weight="normal" fill="#7c1f1a" text-anchor="middle"><tspan x="381.0" y="1265.0">JwtAuthGuard +</tspan><tspan x="381.0" y="1281.0">RolesGuard(ADMIN)</tspan></text>
  <rect x="502" y="1228" width="190" height="82" rx="8" ry="8" fill="#f5f5f5" stroke="#999999" stroke-width="1.5" /><text font-family="Helvetica,Arial,sans-serif" font-size="12" font-weight="normal" fill="#666666" text-anchor="middle"><tspan x="597.0" y="1273.0">none</tspan></text>
  <rect x="718" y="1228" width="210" height="82" rx="8" ry="8" fill="#d5e8d4" stroke="#82b366" stroke-width="1.5" /><text font-family="Helvetica,Arial,sans-serif" font-size="12" font-weight="normal" fill="#274d19" text-anchor="middle"><tspan x="823.0" y="1265.0">PackagesController</tspan><tspan x="823.0" y="1281.0">.remove()</tspan></text>
  <rect x="954" y="1228" width="210" height="82" rx="8" ry="8" fill="#e1d5e7" stroke="#9673a6" stroke-width="1.5" /><text font-family="Helvetica,Arial,sans-serif" font-size="12" font-weight="normal" fill="#4a2f57" text-anchor="middle"><tspan x="1059.0" y="1257.0">PackagesService</tspan><tspan x="1059.0" y="1273.0">.remove()</tspan><tspan x="1059.0" y="1289.0">(soft delete)</tspan></text>
  <rect x="1190" y="1228" width="210" height="82" rx="8" ry="8" fill="#ffe6cc" stroke="#d79b00" stroke-width="1.5" /><text font-family="Helvetica,Arial,sans-serif" font-size="12" font-weight="normal" fill="#7a4900" text-anchor="middle"><tspan x="1295.0" y="1265.0">packagesRepo.findOne()</tspan><tspan x="1295.0" y="1281.0">+save()</tspan></text>
  <rect x="1426" y="1228" width="210" height="82" rx="8" ry="8" fill="#f5deff" stroke="#a366cc" stroke-width="1.5" /><text font-family="Helvetica,Arial,sans-serif" font-size="12" font-weight="normal" fill="#5a1f80" text-anchor="middle"><tspan x="1531.0" y="1257.0">Package (POJO)</tspan><tspan x="1531.0" y="1273.0">→ packages.is_active</tspan><tspan x="1531.0" y="1289.0">=false</tspan></text>
  <rect x="1662" y="1228" width="210" height="82" rx="8" ry="8" fill="#d0e0e3" stroke="#10739e" stroke-width="1.5" /><text font-family="Helvetica,Arial,sans-serif" font-size="12" font-weight="normal" fill="#0b425a" text-anchor="middle"><tspan x="1767.0" y="1273.0">200 OK</tspan></text>
  <path d="M 260 1269.0 L 286 1269.0" fill="none" stroke="#666666" stroke-width="1.5" marker-end="url(#arrow)" />
  <path d="M 476 1269.0 L 502 1269.0" fill="none" stroke="#666666" stroke-width="1.5" marker-end="url(#arrow)" />
  <path d="M 692 1269.0 L 718 1269.0" fill="none" stroke="#666666" stroke-width="1.5" marker-end="url(#arrow)" />
  <path d="M 928 1269.0 L 954 1269.0" fill="none" stroke="#666666" stroke-width="1.5" marker-end="url(#arrow)" />
  <path d="M 1164 1269.0 L 1190 1269.0" fill="none" stroke="#666666" stroke-width="1.5" marker-end="url(#arrow)" />
  <path d="M 1400 1269.0 L 1426 1269.0" fill="none" stroke="#666666" stroke-width="1.5" marker-end="url(#arrow)" />
  <path d="M 1636 1269.0 L 1662 1269.0" fill="none" stroke="#666666" stroke-width="1.5" marker-end="url(#arrow)" />
</svg>
