<svg xmlns="http://www.w3.org/2000/svg" width="1800" height="878" viewBox="0 0 1800 878" font-family="Helvetica,Arial,sans-serif">
  <defs>
    <marker id="arrow" viewBox="0 0 10 10" refX="9" refY="5" markerWidth="7" markerHeight="7" orient="auto-start-reverse">
      <path d="M 0 0 L 10 5 L 0 10 z" fill="#666666" />
    </marker>
  </defs>
  <rect x="0" y="0" width="1800" height="878" fill="#ffffff" />
  <text x="40" y="31.0" font-family="Helvetica,Arial,sans-serif" font-size="18" font-weight="bold" fill="#111111" text-anchor="start">Bookings module — request trace</text>
  <rect x="40" y="60" width="240" height="34" rx="8" ry="8" fill="#f0f0f0" stroke="#333333" stroke-width="1.5" /><text font-family="Helvetica,Arial,sans-serif" font-size="12" font-weight="bold" fill="#111111" text-anchor="middle"><tspan x="160.0" y="81.0">URI</tspan></text>
  <rect x="310" y="60" width="200" height="34" rx="8" ry="8" fill="#f0f0f0" stroke="#333333" stroke-width="1.5" /><text font-family="Helvetica,Arial,sans-serif" font-size="12" font-weight="bold" fill="#111111" text-anchor="middle"><tspan x="410.0" y="81.0">Guards</tspan></text>
  <rect x="540" y="60" width="200" height="34" rx="8" ry="8" fill="#f0f0f0" stroke="#333333" stroke-width="1.5" /><text font-family="Helvetica,Arial,sans-serif" font-size="12" font-weight="bold" fill="#111111" text-anchor="middle"><tspan x="640.0" y="81.0">Request DTO</tspan></text>
  <rect x="770" y="60" width="230" height="34" rx="8" ry="8" fill="#f0f0f0" stroke="#333333" stroke-width="1.5" /><text font-family="Helvetica,Arial,sans-serif" font-size="12" font-weight="bold" fill="#111111" text-anchor="middle"><tspan x="885.0" y="81.0">Controller</tspan></text>
  <rect x="1030" y="60" width="230" height="34" rx="8" ry="8" fill="#f0f0f0" stroke="#333333" stroke-width="1.5" /><text font-family="Helvetica,Arial,sans-serif" font-size="12" font-weight="bold" fill="#111111" text-anchor="middle"><tspan x="1145.0" y="81.0">Service</tspan></text>
  <rect x="1290" y="60" width="210" height="34" rx="8" ry="8" fill="#f0f0f0" stroke="#333333" stroke-width="1.5" /><text font-family="Helvetica,Arial,sans-serif" font-size="12" font-weight="bold" fill="#111111" text-anchor="middle"><tspan x="1395.0" y="81.0">DB Table(s)</tspan></text>
  <rect x="1530" y="60" width="230" height="34" rx="8" ry="8" fill="#f0f0f0" stroke="#333333" stroke-width="1.5" /><text font-family="Helvetica,Arial,sans-serif" font-size="12" font-weight="bold" fill="#111111" text-anchor="middle"><tspan x="1645.0" y="81.0">Response</tspan></text>
  <rect x="40" y="130" width="240" height="78" rx="8" ry="8" fill="#dae8fc" stroke="#6c8ebf" stroke-width="1.5" /><text font-family="Helvetica,Arial,sans-serif" font-size="12" font-weight="bold" fill="#1a3c6e" text-anchor="middle"><tspan x="160.0" y="173.0">POST /bookings</tspan></text>
  <rect x="310" y="130" width="200" height="78" rx="8" ry="8" fill="#f8cecc" stroke="#b85450" stroke-width="1.5" /><text font-family="Helvetica,Arial,sans-serif" font-size="12" font-weight="normal" fill="#7c1f1a" text-anchor="middle"><tspan x="410.0" y="165.0">JwtAuthGuard</tspan><tspan x="410.0" y="181.0">(any logged-in user)</tspan></text>
  <rect x="540" y="130" width="200" height="78" rx="8" ry="8" fill="#fff2cc" stroke="#d6b656" stroke-width="1.5" /><text font-family="Helvetica,Arial,sans-serif" font-size="12" font-weight="normal" fill="#7a5b00" text-anchor="middle"><tspan x="640.0" y="149.0">CreateBookingDto</tspan><tspan x="640.0" y="165.0">(items[], centerId,</tspan><tspan x="640.0" y="181.0">collectionMode,</tspan><tspan x="640.0" y="197.0">scheduledAt)</tspan></text>
  <rect x="770" y="130" width="230" height="78" rx="8" ry="8" fill="#d5e8d4" stroke="#82b366" stroke-width="1.5" /><text font-family="Helvetica,Arial,sans-serif" font-size="12" font-weight="normal" fill="#274d19" text-anchor="middle"><tspan x="885.0" y="165.0">BookingsController</tspan><tspan x="885.0" y="181.0">.create()</tspan></text>
  <rect x="1030" y="130" width="230" height="78" rx="8" ry="8" fill="#e1d5e7" stroke="#9673a6" stroke-width="1.5" /><text font-family="Helvetica,Arial,sans-serif" font-size="12" font-weight="normal" fill="#4a2f57" text-anchor="middle"><tspan x="1145.0" y="149.0">BookingsService.create()</tspan><tspan x="1145.0" y="165.0">→ Centers/PickupPoints/</tspan><tspan x="1145.0" y="181.0">Tests/PackagesService</tspan><tspan x="1145.0" y="197.0">(validate + price)</tspan></text>
  <rect x="1290" y="130" width="210" height="78" rx="8" ry="8" fill="#ffe6cc" stroke="#d79b00" stroke-width="1.5" /><text font-family="Helvetica,Arial,sans-serif" font-size="12" font-weight="normal" fill="#7a4900" text-anchor="middle"><tspan x="1395.0" y="157.0">bookings INSERT +</tspan><tspan x="1395.0" y="173.0">booking_items INSERT</tspan><tspan x="1395.0" y="189.0">(1 transaction)</tspan></text>
  <rect x="1530" y="130" width="230" height="78" rx="8" ry="8" fill="#d0e0e3" stroke="#10739e" stroke-width="1.5" /><text font-family="Helvetica,Arial,sans-serif" font-size="12" font-weight="normal" fill="#0b425a" text-anchor="middle"><tspan x="1645.0" y="165.0">201 Created</tspan><tspan x="1645.0" y="181.0">or 400/404</tspan></text>
  <path d="M 280 169.0 L 310 169.0" fill="none" stroke="#666666" stroke-width="1.5" marker-end="url(#arrow)" />
  <path d="M 510 169.0 L 540 169.0" fill="none" stroke="#666666" stroke-width="1.5" marker-end="url(#arrow)" />
  <path d="M 740 169.0 L 770 169.0" fill="none" stroke="#666666" stroke-width="1.5" marker-end="url(#arrow)" />
  <path d="M 1000 169.0 L 1030 169.0" fill="none" stroke="#666666" stroke-width="1.5" marker-end="url(#arrow)" />
  <path d="M 1260 169.0 L 1290 169.0" fill="none" stroke="#666666" stroke-width="1.5" marker-end="url(#arrow)" />
  <path d="M 1500 169.0 L 1530 169.0" fill="none" stroke="#666666" stroke-width="1.5" marker-end="url(#arrow)" />
  <rect x="40" y="248" width="240" height="78" rx="8" ry="8" fill="#dae8fc" stroke="#6c8ebf" stroke-width="1.5" /><text font-family="Helvetica,Arial,sans-serif" font-size="12" font-weight="bold" fill="#1a3c6e" text-anchor="middle"><tspan x="160.0" y="291.0">GET /bookings/mine</tspan></text>
  <rect x="310" y="248" width="200" height="78" rx="8" ry="8" fill="#f8cecc" stroke="#b85450" stroke-width="1.5" /><text font-family="Helvetica,Arial,sans-serif" font-size="12" font-weight="normal" fill="#7c1f1a" text-anchor="middle"><tspan x="410.0" y="283.0">JwtAuthGuard</tspan><tspan x="410.0" y="299.0">(any logged-in user)</tspan></text>
  <rect x="540" y="248" width="200" height="78" rx="8" ry="8" fill="#f5f5f5" stroke="#999999" stroke-width="1.5" /><text font-family="Helvetica,Arial,sans-serif" font-size="12" font-weight="normal" fill="#666666" text-anchor="middle"><tspan x="640.0" y="291.0">none</tspan></text>
  <rect x="770" y="248" width="230" height="78" rx="8" ry="8" fill="#d5e8d4" stroke="#82b366" stroke-width="1.5" /><text font-family="Helvetica,Arial,sans-serif" font-size="12" font-weight="normal" fill="#274d19" text-anchor="middle"><tspan x="885.0" y="283.0">BookingsController</tspan><tspan x="885.0" y="299.0">.findMine()</tspan></text>
  <rect x="1030" y="248" width="230" height="78" rx="8" ry="8" fill="#e1d5e7" stroke="#9673a6" stroke-width="1.5" /><text font-family="Helvetica,Arial,sans-serif" font-size="12" font-weight="normal" fill="#4a2f57" text-anchor="middle"><tspan x="1145.0" y="283.0">BookingsService</tspan><tspan x="1145.0" y="299.0">.findAllForCustomer()</tspan></text>
  <rect x="1290" y="248" width="210" height="78" rx="8" ry="8" fill="#ffe6cc" stroke="#d79b00" stroke-width="1.5" /><text font-family="Helvetica,Arial,sans-serif" font-size="12" font-weight="normal" fill="#7a4900" text-anchor="middle"><tspan x="1395.0" y="275.0">bookings +</tspan><tspan x="1395.0" y="291.0">booking_items</tspan><tspan x="1395.0" y="307.0">WHERE customer_id</tspan></text>
  <rect x="1530" y="248" width="230" height="78" rx="8" ry="8" fill="#d0e0e3" stroke="#10739e" stroke-width="1.5" /><text font-family="Helvetica,Arial,sans-serif" font-size="12" font-weight="normal" fill="#0b425a" text-anchor="middle"><tspan x="1645.0" y="283.0">200 OK</tspan><tspan x="1645.0" y="299.0">Booking[]</tspan></text>
  <path d="M 280 287.0 L 310 287.0" fill="none" stroke="#666666" stroke-width="1.5" marker-end="url(#arrow)" />
  <path d="M 510 287.0 L 540 287.0" fill="none" stroke="#666666" stroke-width="1.5" marker-end="url(#arrow)" />
  <path d="M 740 287.0 L 770 287.0" fill="none" stroke="#666666" stroke-width="1.5" marker-end="url(#arrow)" />
  <path d="M 1000 287.0 L 1030 287.0" fill="none" stroke="#666666" stroke-width="1.5" marker-end="url(#arrow)" />
  <path d="M 1260 287.0 L 1290 287.0" fill="none" stroke="#666666" stroke-width="1.5" marker-end="url(#arrow)" />
  <path d="M 1500 287.0 L 1530 287.0" fill="none" stroke="#666666" stroke-width="1.5" marker-end="url(#arrow)" />
  <rect x="40" y="366" width="240" height="78" rx="8" ry="8" fill="#dae8fc" stroke="#6c8ebf" stroke-width="1.5" /><text font-family="Helvetica,Arial,sans-serif" font-size="12" font-weight="bold" fill="#1a3c6e" text-anchor="middle"><tspan x="160.0" y="409.0">GET /bookings</tspan></text>
  <rect x="310" y="366" width="200" height="78" rx="8" ry="8" fill="#f8cecc" stroke="#b85450" stroke-width="1.5" /><text font-family="Helvetica,Arial,sans-serif" font-size="12" font-weight="normal" fill="#7c1f1a" text-anchor="middle"><tspan x="410.0" y="401.0">JwtAuthGuard +</tspan><tspan x="410.0" y="417.0">RolesGuard(ADMIN,STAFF)</tspan></text>
  <rect x="540" y="366" width="200" height="78" rx="8" ry="8" fill="#f5f5f5" stroke="#999999" stroke-width="1.5" /><text font-family="Helvetica,Arial,sans-serif" font-size="12" font-weight="normal" fill="#666666" text-anchor="middle"><tspan x="640.0" y="409.0">none</tspan></text>
  <rect x="770" y="366" width="230" height="78" rx="8" ry="8" fill="#d5e8d4" stroke="#82b366" stroke-width="1.5" /><text font-family="Helvetica,Arial,sans-serif" font-size="12" font-weight="normal" fill="#274d19" text-anchor="middle"><tspan x="885.0" y="401.0">BookingsController</tspan><tspan x="885.0" y="417.0">.findAll()</tspan></text>
  <rect x="1030" y="366" width="230" height="78" rx="8" ry="8" fill="#e1d5e7" stroke="#9673a6" stroke-width="1.5" /><text font-family="Helvetica,Arial,sans-serif" font-size="12" font-weight="normal" fill="#4a2f57" text-anchor="middle"><tspan x="1145.0" y="401.0">BookingsService</tspan><tspan x="1145.0" y="417.0">.findAll()</tspan></text>
  <rect x="1290" y="366" width="210" height="78" rx="8" ry="8" fill="#ffe6cc" stroke="#d79b00" stroke-width="1.5" /><text font-family="Helvetica,Arial,sans-serif" font-size="12" font-weight="normal" fill="#7a4900" text-anchor="middle"><tspan x="1395.0" y="393.0">bookings +</tspan><tspan x="1395.0" y="409.0">booking_items</tspan><tspan x="1395.0" y="425.0">(all rows)</tspan></text>
  <rect x="1530" y="366" width="230" height="78" rx="8" ry="8" fill="#d0e0e3" stroke="#10739e" stroke-width="1.5" /><text font-family="Helvetica,Arial,sans-serif" font-size="12" font-weight="normal" fill="#0b425a" text-anchor="middle"><tspan x="1645.0" y="401.0">200 OK</tspan><tspan x="1645.0" y="417.0">Booking[]</tspan></text>
  <path d="M 280 405.0 L 310 405.0" fill="none" stroke="#666666" stroke-width="1.5" marker-end="url(#arrow)" />
  <path d="M 510 405.0 L 540 405.0" fill="none" stroke="#666666" stroke-width="1.5" marker-end="url(#arrow)" />
  <path d="M 740 405.0 L 770 405.0" fill="none" stroke="#666666" stroke-width="1.5" marker-end="url(#arrow)" />
  <path d="M 1000 405.0 L 1030 405.0" fill="none" stroke="#666666" stroke-width="1.5" marker-end="url(#arrow)" />
  <path d="M 1260 405.0 L 1290 405.0" fill="none" stroke="#666666" stroke-width="1.5" marker-end="url(#arrow)" />
  <path d="M 1500 405.0 L 1530 405.0" fill="none" stroke="#666666" stroke-width="1.5" marker-end="url(#arrow)" />
  <rect x="40" y="484" width="240" height="78" rx="8" ry="8" fill="#dae8fc" stroke="#6c8ebf" stroke-width="1.5" /><text font-family="Helvetica,Arial,sans-serif" font-size="12" font-weight="bold" fill="#1a3c6e" text-anchor="middle"><tspan x="160.0" y="527.0">GET /bookings/:id</tspan></text>
  <rect x="310" y="484" width="200" height="78" rx="8" ry="8" fill="#f8cecc" stroke="#b85450" stroke-width="1.5" /><text font-family="Helvetica,Arial,sans-serif" font-size="12" font-weight="normal" fill="#7c1f1a" text-anchor="middle"><tspan x="410.0" y="519.0">JwtAuthGuard</tspan><tspan x="410.0" y="535.0">(owner or ADMIN/STAFF)</tspan></text>
  <rect x="540" y="484" width="200" height="78" rx="8" ry="8" fill="#f5f5f5" stroke="#999999" stroke-width="1.5" /><text font-family="Helvetica,Arial,sans-serif" font-size="12" font-weight="normal" fill="#666666" text-anchor="middle"><tspan x="640.0" y="527.0">none</tspan></text>
  <rect x="770" y="484" width="230" height="78" rx="8" ry="8" fill="#d5e8d4" stroke="#82b366" stroke-width="1.5" /><text font-family="Helvetica,Arial,sans-serif" font-size="12" font-weight="normal" fill="#274d19" text-anchor="middle"><tspan x="885.0" y="519.0">BookingsController</tspan><tspan x="885.0" y="535.0">.findOne()</tspan></text>
  <rect x="1030" y="484" width="230" height="78" rx="8" ry="8" fill="#e1d5e7" stroke="#9673a6" stroke-width="1.5" /><text font-family="Helvetica,Arial,sans-serif" font-size="12" font-weight="normal" fill="#4a2f57" text-anchor="middle"><tspan x="1145.0" y="519.0">BookingsService</tspan><tspan x="1145.0" y="535.0">.findOneForUser()</tspan></text>
  <rect x="1290" y="484" width="210" height="78" rx="8" ry="8" fill="#ffe6cc" stroke="#d79b00" stroke-width="1.5" /><text font-family="Helvetica,Arial,sans-serif" font-size="12" font-weight="normal" fill="#7a4900" text-anchor="middle"><tspan x="1395.0" y="519.0">bookings SELECT</tspan><tspan x="1395.0" y="535.0">WHERE id</tspan></text>
  <rect x="1530" y="484" width="230" height="78" rx="8" ry="8" fill="#d0e0e3" stroke="#10739e" stroke-width="1.5" /><text font-family="Helvetica,Arial,sans-serif" font-size="12" font-weight="normal" fill="#0b425a" text-anchor="middle"><tspan x="1645.0" y="519.0">200 OK, 403</tspan><tspan x="1645.0" y="535.0">(not owner), or 404</tspan></text>
  <path d="M 280 523.0 L 310 523.0" fill="none" stroke="#666666" stroke-width="1.5" marker-end="url(#arrow)" />
  <path d="M 510 523.0 L 540 523.0" fill="none" stroke="#666666" stroke-width="1.5" marker-end="url(#arrow)" />
  <path d="M 740 523.0 L 770 523.0" fill="none" stroke="#666666" stroke-width="1.5" marker-end="url(#arrow)" />
  <path d="M 1000 523.0 L 1030 523.0" fill="none" stroke="#666666" stroke-width="1.5" marker-end="url(#arrow)" />
  <path d="M 1260 523.0 L 1290 523.0" fill="none" stroke="#666666" stroke-width="1.5" marker-end="url(#arrow)" />
  <path d="M 1500 523.0 L 1530 523.0" fill="none" stroke="#666666" stroke-width="1.5" marker-end="url(#arrow)" />
  <rect x="40" y="602" width="240" height="78" rx="8" ry="8" fill="#dae8fc" stroke="#6c8ebf" stroke-width="1.5" /><text font-family="Helvetica,Arial,sans-serif" font-size="12" font-weight="bold" fill="#1a3c6e" text-anchor="middle"><tspan x="160.0" y="637.0">PATCH /bookings/:id</tspan><tspan x="160.0" y="653.0">/cancel</tspan></text>
  <rect x="310" y="602" width="200" height="78" rx="8" ry="8" fill="#f8cecc" stroke="#b85450" stroke-width="1.5" /><text font-family="Helvetica,Arial,sans-serif" font-size="12" font-weight="normal" fill="#7c1f1a" text-anchor="middle"><tspan x="410.0" y="637.0">JwtAuthGuard</tspan><tspan x="410.0" y="653.0">(owner or ADMIN/STAFF)</tspan></text>
  <rect x="540" y="602" width="200" height="78" rx="8" ry="8" fill="#f5f5f5" stroke="#999999" stroke-width="1.5" /><text font-family="Helvetica,Arial,sans-serif" font-size="12" font-weight="normal" fill="#666666" text-anchor="middle"><tspan x="640.0" y="645.0">none</tspan></text>
  <rect x="770" y="602" width="230" height="78" rx="8" ry="8" fill="#d5e8d4" stroke="#82b366" stroke-width="1.5" /><text font-family="Helvetica,Arial,sans-serif" font-size="12" font-weight="normal" fill="#274d19" text-anchor="middle"><tspan x="885.0" y="637.0">BookingsController</tspan><tspan x="885.0" y="653.0">.cancel()</tspan></text>
  <rect x="1030" y="602" width="230" height="78" rx="8" ry="8" fill="#e1d5e7" stroke="#9673a6" stroke-width="1.5" /><text font-family="Helvetica,Arial,sans-serif" font-size="12" font-weight="normal" fill="#4a2f57" text-anchor="middle"><tspan x="1145.0" y="637.0">BookingsService</tspan><tspan x="1145.0" y="653.0">.cancel()</tspan></text>
  <rect x="1290" y="602" width="210" height="78" rx="8" ry="8" fill="#ffe6cc" stroke="#d79b00" stroke-width="1.5" /><text font-family="Helvetica,Arial,sans-serif" font-size="12" font-weight="normal" fill="#7a4900" text-anchor="middle"><tspan x="1395.0" y="629.0">bookings SELECT +</tspan><tspan x="1395.0" y="645.0">UPDATE status=</tspan><tspan x="1395.0" y="661.0">CANCELLED</tspan></text>
  <rect x="1530" y="602" width="230" height="78" rx="8" ry="8" fill="#d0e0e3" stroke="#10739e" stroke-width="1.5" /><text font-family="Helvetica,Arial,sans-serif" font-size="12" font-weight="normal" fill="#0b425a" text-anchor="middle"><tspan x="1645.0" y="637.0">200 OK</tspan><tspan x="1645.0" y="653.0">or 400 (bad state)</tspan></text>
  <path d="M 280 641.0 L 310 641.0" fill="none" stroke="#666666" stroke-width="1.5" marker-end="url(#arrow)" />
  <path d="M 510 641.0 L 540 641.0" fill="none" stroke="#666666" stroke-width="1.5" marker-end="url(#arrow)" />
  <path d="M 740 641.0 L 770 641.0" fill="none" stroke="#666666" stroke-width="1.5" marker-end="url(#arrow)" />
  <path d="M 1000 641.0 L 1030 641.0" fill="none" stroke="#666666" stroke-width="1.5" marker-end="url(#arrow)" />
  <path d="M 1260 641.0 L 1290 641.0" fill="none" stroke="#666666" stroke-width="1.5" marker-end="url(#arrow)" />
  <path d="M 1500 641.0 L 1530 641.0" fill="none" stroke="#666666" stroke-width="1.5" marker-end="url(#arrow)" />
  <rect x="40" y="720" width="240" height="78" rx="8" ry="8" fill="#dae8fc" stroke="#6c8ebf" stroke-width="1.5" /><text font-family="Helvetica,Arial,sans-serif" font-size="12" font-weight="bold" fill="#1a3c6e" text-anchor="middle"><tspan x="160.0" y="755.0">PATCH /bookings/:id</tspan><tspan x="160.0" y="771.0">/status</tspan></text>
  <rect x="310" y="720" width="200" height="78" rx="8" ry="8" fill="#f8cecc" stroke="#b85450" stroke-width="1.5" /><text font-family="Helvetica,Arial,sans-serif" font-size="12" font-weight="normal" fill="#7c1f1a" text-anchor="middle"><tspan x="410.0" y="755.0">JwtAuthGuard +</tspan><tspan x="410.0" y="771.0">RolesGuard(ADMIN,STAFF)</tspan></text>
  <rect x="540" y="720" width="200" height="78" rx="8" ry="8" fill="#fff2cc" stroke="#d6b656" stroke-width="1.5" /><text font-family="Helvetica,Arial,sans-serif" font-size="12" font-weight="normal" fill="#7a5b00" text-anchor="middle"><tspan x="640.0" y="763.0">UpdateBookingStatusDto</tspan></text>
  <rect x="770" y="720" width="230" height="78" rx="8" ry="8" fill="#d5e8d4" stroke="#82b366" stroke-width="1.5" /><text font-family="Helvetica,Arial,sans-serif" font-size="12" font-weight="normal" fill="#274d19" text-anchor="middle"><tspan x="885.0" y="755.0">BookingsController</tspan><tspan x="885.0" y="771.0">.updateStatus()</tspan></text>
  <rect x="1030" y="720" width="230" height="78" rx="8" ry="8" fill="#e1d5e7" stroke="#9673a6" stroke-width="1.5" /><text font-family="Helvetica,Arial,sans-serif" font-size="12" font-weight="normal" fill="#4a2f57" text-anchor="middle"><tspan x="1145.0" y="755.0">BookingsService</tspan><tspan x="1145.0" y="771.0">.updateStatus()</tspan></text>
  <rect x="1290" y="720" width="210" height="78" rx="8" ry="8" fill="#ffe6cc" stroke="#d79b00" stroke-width="1.5" /><text font-family="Helvetica,Arial,sans-serif" font-size="12" font-weight="normal" fill="#7a4900" text-anchor="middle"><tspan x="1395.0" y="755.0">bookings SELECT +</tspan><tspan x="1395.0" y="771.0">UPDATE status</tspan></text>
  <rect x="1530" y="720" width="230" height="78" rx="8" ry="8" fill="#d0e0e3" stroke="#10739e" stroke-width="1.5" /><text font-family="Helvetica,Arial,sans-serif" font-size="12" font-weight="normal" fill="#0b425a" text-anchor="middle"><tspan x="1645.0" y="763.0">200 OK</tspan></text>
  <path d="M 280 759.0 L 310 759.0" fill="none" stroke="#666666" stroke-width="1.5" marker-end="url(#arrow)" />
  <path d="M 510 759.0 L 540 759.0" fill="none" stroke="#666666" stroke-width="1.5" marker-end="url(#arrow)" />
  <path d="M 740 759.0 L 770 759.0" fill="none" stroke="#666666" stroke-width="1.5" marker-end="url(#arrow)" />
  <path d="M 1000 759.0 L 1030 759.0" fill="none" stroke="#666666" stroke-width="1.5" marker-end="url(#arrow)" />
  <path d="M 1260 759.0 L 1290 759.0" fill="none" stroke="#666666" stroke-width="1.5" marker-end="url(#arrow)" />
  <path d="M 1500 759.0 L 1530 759.0" fill="none" stroke="#666666" stroke-width="1.5" marker-end="url(#arrow)" />
</svg>
